<?xml version="1.0" encoding="UTF-8" standalone="no"?>
<!DOCTYPE svg PUBLIC "-//W3C//DTD SVG 1.1//EN" "http://www.w3.org/Graphics/SVG/1.1/DTD/svg11.dtd">
<svg xmlns="http://www.w3.org/2000/svg" version="1.1" viewBox="0 0 1200 536">
<path fill="rgb(0,107,179)" fill-opacity="1.000" d="M 0.00 0.00 Q 600.00 0.00 1200.00 0.00 Q 1200.00 268.00 1200.00 536.00 Q 600.00 536.00 0.00 536.00 Q 0.00 268.00 0.00 0.00 Z M 220.96 145.86 Q 222.23 144.20 223.67 145.72 Q 224.93 147.04 226.04 150.02 Q 229.52 159.35 231.69 169.06 Q 235.40 185.69 238.13 202.52 Q 243.92 238.09 248.59 273.82 Q 254.65 320.24 261.53 366.53 Q 263.32 378.62 267.19 392.56 Q 268.94 398.89 272.44 403.87 Q 276.38 409.46 281.74 411.65 Q 288.22 414.30 294.55 411.33 Q 299.18 409.16 303.00 403.58 Q 306.31 398.74 308.43 393.18 Q 312.74 381.90 318.00 371.18 A 2.01 2.00 13.1 0 1 319.80 370.06 L 987.43 369.94 A 0.62 0.58 4.3 0 0 988.04 369.45 L 990.99 352.07 A 0.28 0.28 4.4 0 0 990.71 351.75 Q 658.80 351.75 327.09 351.75 Q 316.38 351.75 314.46 352.16 Q 307.57 353.64 303.56 359.81 Q 297.91 368.51 292.76 382.62 Q 290.77 388.09 287.93 393.20 Q 287.46 394.05 287.05 393.16 Q 284.35 387.32 283.04 380.99 Q 281.24 372.28 279.92 363.47 Q 271.39 306.61 263.85 249.60 Q 262.82 241.79 261.45 232.93 Q 260.17 224.60 258.95 216.26 Q 255.02 189.31 248.79 162.80 Q 246.60 153.48 243.23 144.51 Q 241.02 138.61 238.06 134.44 Q 228.93 121.59 215.77 127.68 Q 212.28 129.29 209.37 132.20 Q 206.48 135.08 204.44 138.44 Q 199.20 147.04 195.65 157.17 Q 191.35 169.44 188.12 182.03 Q 178.96 217.67 171.75 253.75 Q 163.84 291.97 156.33 330.27 Q 155.11 336.49 152.56 342.27 Q 150.30 347.37 145.86 349.90 Q 143.02 351.51 137.81 351.68 Q 132.22 351.86 126.19 351.73 A 0.68 0.65 -84.4 0 0 125.53 352.29 L 122.66 369.49 A 0.43 0.43 -84.9 0 0 123.08 370.00 Q 131.00 370.00 138.50 369.96 Q 153.81 369.88 163.52 358.29 Q 170.00 350.56 172.44 340.73 Q 175.22 329.52 177.43 318.18 Q 185.24 277.97 193.70 237.89 Q 200.16 207.31 208.33 177.16 Q 211.71 164.68 216.85 152.83 Q 218.42 149.20 220.96 145.86 Z M 457.00 211.04 Q 456.47 211.43 455.56 213.56 Q 442.04 245.32 428.18 276.95 Q 427.55 278.40 427.49 276.82 L 425.26 211.93 A 0.97 0.96 88.8 0 0 424.30 211.00 L 356.43 211.18 A 0.62 0.60 -84.1 0 0 355.84 211.68 L 331.41 332.20 A 0.41 0.41 -84.2 0 0 331.81 332.69 L 370.68 332.69 A 0.62 0.61 5.7 0 0 371.29 332.20 Q 380.74 285.31 390.41 238.46 Q 390.52 237.92 390.77 237.63 Q 391.55 236.73 391.63 238.81 Q 393.49 285.54 395.49 332.05 A 0.74 0.73 -1.2 0 0 396.23 332.75 L 433.54 332.75 A 1.43 1.43 -77.8 0 0 434.84 331.91 L 476.89 239.45 Q 478.91 235.00 477.94 239.80 L 459.35 332.01 A 0.42 0.42 5.7 0 0 459.76 332.51 L 500.23 332.74 A 1.19 1.17 -84.1 0 0 501.39 331.78 L 525.71 211.98 A 0.82 0.82 5.7 0 0 524.90 211.00 L 479.75 210.96 Q 480.24 209.81 478.50 210.25 Q 467.69 209.34 457.00 211.04 Z M 793.00 211.04 Q 792.47 211.43 791.56 213.56 Q 778.04 245.32 764.18 276.95 Q 763.55 278.40 763.49 276.82 L 761.26 211.93 A 0.97 0.96 88.8 0 0 760.30 211.00 L 692.43 211.18 A 0.62 0.60 -84.1 0 0 691.84 211.68 L 667.41 332.20 A 0.41 0.41 -84.2 0 0 667.81 332.69 L 706.68 332.69 A 0.62 0.61 5.7 0 0 707.29 332.20 Q 716.74 285.31 726.41 238.46 Q 726.52 237.92 726.77 237.63 Q 727.55 236.73 727.63 238.81 Q 729.49 285.54 731.49 332.05 A 0.74 0.73 -1.2 0 0 732.23 332.75 L 769.54 332.75 A 1.43 1.43 -77.8 0 0 770.84 331.91 L 812.89 239.45 Q 814.91 235.00 813.94 239.80 L 795.35 332.01 A 0.42 0.41 -84.2 0 0 795.75 332.51 L 836.16 332.74 A 1.21 1.20 -84.5 0 0 837.34 331.76 L 861.68 211.86 A 0.72 0.72 5.6 0 0 860.97 211.00 L 819.75 210.96 L 819.76 210.63 A 0.41 0.33 0.9 0 0 819.36 210.30 Q 811.18 210.11 803.00 210.06 Q 797.94 210.03 793.00 211.04 Z M 656.32 332.72 A 0.68 0.67 83.2 0 0 656.97 331.88 L 628.87 213.99 A 0.64 0.62 82.9 0 0 628.26 213.50 L 589.94 213.44 A 0.92 0.91 16.3 0 0 589.17 213.86 L 513.46 332.30 Q 513.01 333.00 513.84 333.00 L 554.54 333.00 A 2.05 2.02 -75.0 0 0 556.31 331.96 L 566.69 313.73 Q 567.69 311.97 569.78 311.99 L 611.96 312.24 A 1.31 1.30 -5.4 0 1 613.23 313.28 L 616.90 331.86 A 1.38 1.37 84.2 0 0 618.26 332.98 L 656.32 332.72 Z M 950.05 312.81 L 953.72 331.81 A 1.47 1.42 84.3 0 0 955.12 333.00 L 993.44 333.00 A 0.70 0.70 83.4 0 0 994.12 332.14 L 965.96 214.00 A 0.66 0.65 -6.7 0 0 965.32 213.50 L 926.73 213.50 A 0.95 0.93 -73.4 0 0 925.94 213.94 L 850.78 331.85 Q 850.04 333.00 851.41 333.00 L 891.67 333.00 A 1.81 1.79 -75.0 0 0 893.23 332.09 L 904.31 312.72 A 0.94 0.93 -75.0 0 1 905.12 312.25 L 949.43 312.31 A 0.63 0.62 -5.5 0 1 950.05 312.81 Z M 1077.73 363.24 L 1013.79 344.09 A 0.73 0.72 13.8 0 0 1012.87 344.64 L 1006.54 377.73 A 0.61 0.61 0.0 0 0 1007.26 378.45 Q 1041.42 371.60 1074.53 364.66 Q 1076.24 364.30 1077.75 363.59 Q 1078.20 363.38 1077.73 363.24 Z M 927.46 380.45 Q 926.91 378.37 925.00 379.32 A 0.98 0.96 -9.4 0 0 924.46 380.06 Q 924.37 380.79 924.62 381.42 Q 924.90 382.15 925.85 382.60 Q 929.84 384.50 932.89 381.52 Q 933.53 380.89 933.58 380.15 Q 933.68 378.58 931.78 379.15 A 1.57 1.03 -73.1 0 0 931.06 379.75 Q 930.02 381.33 928.06 381.04 A 0.83 0.70 85.0 0 1 927.46 380.45 Z M 336.92 392.25 Q 340.24 390.13 339.54 386.30 A 1.42 1.37 -75.8 0 0 339.07 385.48 Q 336.36 383.12 332.83 384.13 Q 331.35 384.56 331.03 384.72 Q 330.13 385.19 329.81 386.32 A 0.94 0.83 0.6 0 0 330.93 387.33 L 333.75 386.75 Q 336.92 386.10 336.00 388.50 Q 334.84 391.52 331.55 391.14 A 1.42 1.11 25.5 0 0 330.65 391.34 Q 328.64 392.79 330.63 393.51 Q 331.07 393.67 332.40 393.78 Q 336.01 394.06 333.84 397.40 A 1.51 1.42 -82.8 0 1 333.11 398.00 Q 330.56 398.94 327.96 397.94 A 0.54 0.49 20.4 0 0 327.28 398.21 Q 326.91 399.19 327.42 400.14 A 1.37 1.09 -0.3 0 0 328.17 400.73 Q 331.17 401.72 334.56 400.56 Q 339.18 398.99 338.41 394.43 A 1.41 1.21 17.8 0 0 337.92 393.63 L 336.89 392.82 A 0.35 0.35 48.3 0 1 336.92 392.25 Z M 350.56 397.54 L 350.97 399.88 A 1.15 1.02 -89.9 0 0 351.77 400.79 Q 354.87 401.46 354.55 399.54 Q 353.33 392.43 352.15 385.11 A 1.23 1.22 -87.9 0 0 351.23 384.11 Q 347.96 383.29 346.65 386.14 Q 345.87 387.86 345.83 387.93 Q 342.53 393.85 339.31 399.82 A 0.81 0.80 -74.5 0 0 339.98 401.01 Q 343.25 401.13 343.97 397.80 A 0.72 0.59 -83.2 0 1 344.56 397.23 L 349.94 397.01 A 0.64 0.60 83.5 0 1 350.56 397.54 Z M 363.67 395.57 L 363.08 399.67 A 1.15 1.04 -84.9 0 0 364.06 400.97 Q 366.46 401.06 366.55 399.61 Q 366.62 398.45 366.63 398.39 Q 368.00 392.20 369.26 384.89 A 0.69 0.69 8.1 0 0 368.65 384.08 Q 365.49 383.71 365.75 386.25 Q 365.08 388.69 364.75 391.19 A 0.89 0.77 85.8 0 1 364.23 391.89 Q 363.75 392.06 363.24 392.07 Q 362.01 392.09 361.77 392.11 Q 359.13 392.31 359.75 389.25 Q 359.86 387.13 360.32 385.05 A 0.66 0.63 -70.6 0 0 359.99 384.32 Q 357.75 383.22 357.03 385.04 Q 357.03 385.04 356.38 387.45 Q 354.20 395.65 363.19 395.10 A 0.45 0.42 1.4 0 1 363.67 395.57 Z M 375.31 393.77 Q 377.23 393.63 379.16 393.53 Q 379.87 393.49 380.22 393.11 Q 380.67 392.62 380.64 391.93 A 0.65 0.64 -88.0 0 0 380.07 391.31 L 376.32 390.92 A 0.73 0.56 -0.1 0 1 375.70 390.45 Q 374.84 386.02 379.75 386.98 Q 383.31 387.68 382.63 384.73 A 0.68 0.61 82.6 0 0 382.01 384.19 L 374.27 384.33 A 1.43 1.29 -84.5 0 0 373.00 385.49 L 370.14 400.33 A 0.57 0.56 5.6 0 0 370.69 400.99 Q 374.76 401.04 378.17 400.96 Q 379.13 400.93 379.61 400.59 Q 380.50 399.97 380.00 398.93 A 0.86 0.73 -10.5 0 0 379.25 398.50 L 374.92 398.50 A 0.63 0.55 2.8 0 1 374.28 397.89 L 374.65 394.29 A 0.74 0.57 -0.7 0 1 375.31 393.77 Z M 437.08 400.39 Q 440.01 401.94 443.15 400.84 Q 443.99 400.55 444.57 399.80 Q 447.31 396.31 443.13 397.89 Q 442.04 398.31 441.30 398.29 Q 437.74 398.22 438.07 394.26 Q 438.42 390.07 440.19 388.44 Q 442.83 386.00 446.47 387.69 A 0.94 0.94 19.6 0 0 447.78 387.07 Q 448.09 385.87 447.28 385.06 Q 446.73 384.51 445.58 384.28 Q 439.38 383.04 436.09 388.58 Q 433.82 392.37 434.50 396.76 Q 434.88 399.22 437.08 400.39 Z M 454.19 391.17 Q 452.48 390.44 453.05 388.66 Q 454.89 382.91 451.20 384.54 A 0.98 0.96 84.2 0 0 450.64 385.24 L 447.63 400.29 A 0.52 0.51 12.3 0 0 448.03 400.90 Q 450.73 401.48 451.25 399.50 Q 451.65 397.01 452.20 394.55 A 1.05 0.94 86.8 0 1 452.76 393.85 Q 454.81 392.98 454.81 395.25 Q 454.81 397.50 455.96 399.09 Q 456.99 400.50 459.14 401.03 Q 464.84 402.43 468.44 397.69 Q 471.52 393.62 470.52 388.64 Q 470.03 386.19 468.38 385.08 Q 466.57 383.86 464.00 384.00 Q 459.04 384.27 456.77 388.18 Q 456.66 388.37 456.03 390.01 Q 455.39 391.69 454.19 391.17 Z M 483.71 401.56 L 483.39 404.03 A 1.37 0.52 -75.6 0 0 483.49 404.94 Q 484.19 405.98 485.39 405.33 A 1.56 1.19 -87.1 0 0 486.01 404.60 Q 487.09 401.93 487.18 399.05 A 0.69 0.60 10.8 0 0 486.70 398.44 Q 485.20 397.95 485.64 396.59 Q 486.07 395.29 486.08 395.24 Q 487.10 390.00 488.00 384.74 A 0.58 0.57 -85.4 0 0 487.43 384.06 L 478.41 384.26 A 0.84 0.79 -79.6 0 0 477.67 384.80 Q 476.39 388.21 475.56 391.27 Q 474.58 394.88 472.05 397.41 Q 470.10 399.36 469.71 400.65 Q 469.10 402.66 469.37 404.82 A 0.66 0.63 89.8 0 0 469.92 405.40 Q 472.39 405.72 472.45 402.53 A 1.55 1.52 -89.4 0 1 473.98 401.00 L 483.19 401.05 A 0.52 0.46 2.9 0 1 483.71 401.56 Z M 498.61 397.01 A 1.28 1.27 6.5 0 1 499.79 398.49 Q 499.34 401.28 502.23 400.94 A 1.21 1.19 -7.4 0 0 503.29 399.58 L 501.17 385.28 A 1.01 0.98 4.9 0 0 500.48 384.48 Q 497.06 383.39 495.95 385.50 Q 492.12 392.76 488.25 400.01 A 0.66 0.65 -72.2 0 0 488.74 400.97 Q 490.20 401.15 491.17 400.54 Q 491.64 400.24 492.33 398.64 Q 493.29 396.40 496.28 396.76 Q 497.85 396.95 498.61 397.01 Z M 523.62 387.56 L 521.36 400.01 A 0.72 0.62 -72.7 0 0 521.68 400.74 Q 523.36 401.62 524.34 400.61 Q 524.91 400.01 525.21 398.23 Q 526.31 391.81 527.80 385.29 A 0.87 0.83 -83.7 0 0 526.99 384.23 L 515.83 384.27 A 1.05 1.03 -84.2 0 0 514.82 385.11 L 511.66 400.19 A 0.58 0.57 -74.9 0 0 512.04 400.86 Q 515.12 401.80 515.50 398.50 Q 516.05 393.75 517.68 387.80 A 0.79 0.65 -82.0 0 1 518.31 387.22 L 523.19 387.01 A 0.47 0.43 -85.6 0 1 523.62 387.56 Z M 531.5273 400.2901 A 9.47 7.45 125.6 0 0 543.0976 396.9268 A 9.47 7.45 125.6 0 0 542.5527 384.8899 A 9.47 7.45 125.6 0 0 530.9824 388.2532 A 9.47 7.45 125.6 0 0 531.5273 400.2901 Z M 551.13 396.97 Q 549.95 393.80 551.37 390.59 Q 553.75 385.21 558.81 387.77 A 0.76 0.66 35.0 0 0 559.63 387.68 Q 560.86 386.52 559.87 385.08 A 1.54 1.25 -4.7 0 0 559.08 384.54 Q 552.16 382.54 548.44 388.71 Q 547.12 390.92 546.98 393.50 Q 546.48 402.82 555.60 401.00 Q 557.89 400.54 558.01 398.09 Q 558.08 396.64 556.86 397.44 Q 554.44 399.06 551.75 397.68 A 1.28 1.27 -86.4 0 1 551.13 396.97 Z M 565.06 387.01 A 0.78 0.74 -81.0 0 1 565.69 387.92 L 563.38 400.33 A 0.52 0.50 10.0 0 0 563.81 400.92 Q 566.55 401.40 566.93 399.34 Q 568.02 393.45 568.91 388.41 A 1.83 1.83 9.1 0 1 570.97 386.92 Q 574.80 387.48 574.14 384.74 A 0.72 0.69 -3.2 0 0 573.51 384.20 Q 568.03 383.68 562.55 384.26 A 0.96 0.91 10.3 0 0 561.81 384.74 Q 560.38 387.39 563.75 387.04 Q 564.60 386.95 565.06 387.01 Z M 580.69 392.21 Q 579.82 388.92 578.80 385.67 Q 578.44 384.54 577.73 384.14 Q 576.64 383.53 575.61 384.40 A 0.86 0.76 64.5 0 0 575.37 385.23 Q 576.68 390.52 578.25 395.75 Q 578.34 398.77 575.21 397.92 A 0.99 0.99 10.8 0 0 573.97 398.76 Q 573.59 402.04 577.64 400.90 Q 579.91 400.27 580.97 398.53 L 589.15 385.15 A 0.52 0.50 25.6 0 0 588.87 384.41 Q 586.54 383.50 585.56 385.06 Q 583.65 388.88 581.11 392.29 Q 580.81 392.69 580.69 392.21 Z M 600.37 387.56 L 598.17 399.95 A 0.71 0.63 -72.8 0 0 598.50 400.68 Q 601.15 402.01 601.75 398.95 Q 603.00 392.47 604.32 385.66 A 1.40 1.40 5.4 0 0 602.94 384.00 L 592.98 384.00 A 1.57 1.50 5.4 0 0 591.45 385.21 L 588.42 400.30 A 0.49 0.47 18.1 0 0 588.70 400.82 Q 590.20 401.47 591.19 400.77 Q 591.88 400.28 592.11 398.83 Q 592.99 393.24 594.30 387.53 A 0.67 0.65 -83.3 0 1 594.94 387.01 L 599.93 387.04 A 0.45 0.44 4.9 0 1 600.37 387.56 Z M 617.09 391.56 L 615.64 400.20 A 0.63 0.60 -75.4 0 0 616.02 400.89 Q 617.32 401.36 618.42 400.62 A 1.29 1.06 82.4 0 0 618.91 399.83 L 621.66 385.25 A 0.99 0.84 -66.1 0 0 621.41 384.39 Q 620.20 383.31 619.00 384.50 Q 614.57 388.86 610.80 393.83 Q 609.90 395.01 610.14 393.56 L 611.56 384.97 A 0.62 0.62 -77.5 0 0 611.12 384.27 Q 607.78 383.36 608.00 386.50 Q 606.62 392.39 605.61 398.36 Q 605.59 398.46 605.30 399.62 Q 604.81 401.60 607.09 401.03 Q 608.55 400.65 609.84 399.22 L 616.83 391.40 Q 617.19 390.99 617.09 391.56 Z M 634.38 387.56 L 632.35 400.01 A 0.76 0.64 -72.7 0 0 632.67 400.77 Q 633.88 401.44 635.08 400.77 A 1.15 1.04 82.6 0 0 635.61 400.01 L 638.37 385.05 A 0.51 0.46 -83.0 0 0 637.95 384.46 L 630.14 384.07 A 2.14 1.90 -80.8 0 0 628.15 385.70 Q 626.60 391.89 623.56 397.06 Q 623.48 397.21 621.59 398.66 Q 620.97 399.14 620.79 399.67 Q 620.47 400.67 621.23 401.05 Q 621.82 401.34 622.77 401.06 Q 626.52 399.94 627.75 396.00 Q 629.65 391.93 631.04 387.66 A 0.82 0.63 -79.3 0 1 631.68 387.09 L 633.95 387.00 A 0.48 0.43 -86.0 0 1 634.38 387.56 Z M 651.00 397.91 Q 648.76 398.97 646.40 398.02 A 1.82 1.07 38.3 0 0 645.44 397.89 Q 643.52 398.27 644.58 399.82 Q 645.08 400.56 646.09 400.86 Q 650.84 402.23 654.31 399.56 Q 656.97 397.52 655.74 393.91 A 1.41 1.14 9.6 0 0 655.12 393.21 Q 653.33 392.23 654.85 391.38 Q 655.78 390.87 656.10 390.49 Q 657.96 388.30 656.87 386.14 Q 656.00 384.40 653.78 384.06 Q 651.13 383.65 648.58 384.91 Q 647.19 385.59 647.09 386.91 Q 647.00 388.06 648.02 387.53 Q 650.36 386.30 652.70 386.92 A 0.77 0.76 3.6 0 1 653.27 387.55 Q 653.71 391.09 649.75 390.99 Q 646.15 390.91 647.49 393.32 A 0.76 0.69 -17.2 0 0 648.24 393.67 Q 653.26 392.97 651.63 397.22 A 1.26 1.21 88.7 0 1 651.00 397.91 Z M 666.69 397.04 A 1.63 1.63 -83.8 0 1 668.25 398.99 Q 667.77 401.46 671.29 400.81 A 0.78 0.78 -9.6 0 0 671.92 399.93 L 669.65 384.94 A 0.91 0.86 -84.6 0 0 669.10 384.24 Q 667.29 383.54 665.51 384.34 A 1.50 1.41 -86.7 0 0 664.82 384.99 L 656.73 400.06 A 0.50 0.48 -62.9 0 0 656.94 400.74 Q 658.46 401.49 659.56 400.69 Q 659.66 400.61 660.87 398.42 Q 661.64 397.03 663.44 397.14 Q 664.58 397.20 665.06 397.15 Q 666.15 397.03 666.69 397.04 Z M 680.80 387.05 Q 684.98 386.90 686.25 387.00 Q 688.39 387.17 688.23 384.76 A 0.81 0.80 -1.5 0 0 687.42 384.00 L 678.51 384.00 A 1.33 1.31 -84.4 0 0 677.22 385.07 L 674.25 400.09 A 0.73 0.73 -83.2 0 0 674.93 400.96 Q 679.11 401.16 682.41 400.55 Q 686.08 399.87 686.98 396.29 Q 687.89 392.65 684.50 391.50 Q 682.45 391.29 680.43 390.91 A 0.65 0.53 8.4 0 1 679.89 390.32 L 680.17 387.55 A 0.67 0.55 1.3 0 1 680.80 387.05 Z M 694.47 390.09 L 694.81 387.55 A 0.73 0.62 -82.5 0 1 695.51 386.91 Q 696.99 387.09 698.12 386.97 Q 698.83 386.89 700.40 386.87 Q 702.32 386.85 701.83 384.80 A 0.71 0.65 82.6 0 0 701.19 384.26 L 693.07 384.26 A 0.69 0.66 -83.5 0 0 692.42 384.80 L 689.13 400.30 A 0.61 0.58 5.8 0 0 689.73 401.00 L 697.69 400.95 A 1.43 1.15 19.2 0 0 698.59 400.63 Q 699.53 399.80 698.96 398.73 A 0.94 0.51 -5.7 0 0 698.20 398.41 L 695.73 398.37 Q 694.99 398.36 694.79 398.42 Q 692.49 399.19 693.25 396.75 Q 693.29 395.56 693.56 394.41 A 0.79 0.63 -82.7 0 1 694.18 393.81 L 698.45 393.60 A 1.04 0.53 5.3 0 0 699.24 393.29 Q 699.71 392.54 699.45 391.72 A 0.89 0.66 -1.1 0 0 698.76 391.23 L 694.79 390.68 A 0.54 0.39 -82.6 0 1 694.47 390.09 Z M 712.07 384.48 Q 709.09 383.68 705.98 384.38 A 0.82 0.77 -1.6 0 0 705.37 384.98 L 702.14 400.19 A 0.61 0.60 -74.0 0 0 702.52 400.89 Q 703.71 401.33 704.82 400.76 A 1.23 1.06 86.8 0 0 705.39 400.02 L 706.45 395.80 A 0.61 0.59 -81.6 0 1 707.05 395.34 Q 712.44 395.55 715.00 391.50 Q 716.62 388.93 715.43 386.80 Q 714.50 385.13 712.07 384.48 Z M 720.90 394.19 L 722.65 385.00 A 0.74 0.64 -72.3 0 0 722.32 384.24 Q 721.02 383.57 719.74 384.29 A 1.18 1.01 84.5 0 0 719.21 385.05 L 716.16 400.20 A 0.64 0.63 10.2 0 0 716.69 400.96 Q 717.80 401.12 718.86 400.75 Q 719.68 400.47 720.48 399.50 Q 724.06 395.13 727.85 390.94 Q 728.20 390.54 728.12 391.05 L 726.65 400.20 A 0.63 0.57 -77.2 0 0 727.03 400.88 Q 728.20 401.29 729.32 400.75 A 1.03 0.98 82.8 0 0 729.87 400.01 L 732.69 384.99 A 0.71 0.69 19.1 0 0 732.32 384.25 Q 730.35 383.24 729.19 385.19 Q 728.85 385.75 721.15 394.32 Q 720.80 394.70 720.90 394.19 Z M 745.75 389.06 L 747.47 400.19 A 0.79 0.75 -88.0 0 0 748.04 400.83 Q 750.66 401.48 751.77 399.26 Q 752.45 397.92 752.45 397.91 Q 754.93 393.74 757.19 389.43 Q 757.98 387.93 757.73 389.60 Q 757.09 394.01 756.22 398.49 Q 755.51 402.10 758.55 400.72 A 1.00 0.99 -6.6 0 0 759.12 400.01 L 762.03 385.32 A 0.74 0.72 11.0 0 0 761.44 384.47 Q 758.29 383.88 756.74 385.09 Q 756.39 385.36 754.50 388.64 Q 752.56 392.01 750.71 395.39 Q 750.17 396.38 750.00 395.27 Q 749.35 391.04 748.51 386.86 Q 748.09 384.81 746.96 384.35 Q 745.61 383.80 743.49 384.50 A 1.40 1.35 -4.4 0 0 742.57 385.53 L 739.62 400.29 A 0.52 0.52 9.5 0 0 740.06 400.90 Q 742.93 401.32 743.00 399.25 Q 744.18 394.41 745.00 389.50 Q 745.08 389.03 745.27 388.80 Q 745.64 388.34 745.75 389.06 Z M 768.38 390.06 L 769.12 387.28 A 0.67 0.57 8.5 0 1 769.80 386.86 Q 771.65 387.01 773.50 386.75 Q 776.41 387.18 775.66 384.71 A 0.81 0.75 -3.7 0 0 775.01 384.18 Q 771.31 383.71 766.99 384.28 A 1.22 1.17 1.5 0 0 765.95 385.23 L 763.06 400.21 A 0.67 0.66 5.6 0 0 763.72 401.00 L 771.69 400.95 A 1.04 0.99 18.0 0 0 772.50 400.56 Q 773.94 398.70 771.97 398.34 Q 771.45 398.24 770.03 398.38 Q 765.22 398.84 767.40 394.83 Q 768.26 393.23 770.07 393.39 Q 773.81 393.73 773.33 391.54 A 0.74 0.52 -0.5 0 0 772.70 391.10 L 768.80 390.70 A 0.51 0.49 -79.2 0 1 768.38 390.06 Z M 781.55 390.19 Q 781.55 388.17 782.21 386.24 Q 783.08 383.65 779.83 384.34 A 0.94 0.89 -1.3 0 0 779.11 385.05 L 776.14 400.19 A 0.61 0.60 -75.1 0 0 776.53 400.88 Q 777.70 401.29 778.82 400.75 A 1.12 0.94 85.8 0 0 779.35 400.01 L 780.58 394.42 A 0.70 0.61 -83.3 0 1 781.18 393.87 L 786.16 393.81 A 0.89 0.75 -84.1 0 1 786.88 394.87 L 785.85 400.20 A 0.65 0.59 16.1 0 0 786.27 400.89 Q 787.35 401.28 788.38 400.80 A 1.06 0.99 84.6 0 0 788.94 400.08 L 791.93 384.99 A 0.65 0.65 17.4 0 0 791.55 384.27 Q 790.39 383.79 789.20 384.28 A 1.07 0.80 89.5 0 0 788.67 385.00 L 787.56 390.27 A 0.61 0.60 6.2 0 1 786.95 390.75 L 782.07 390.71 A 0.53 0.52 0.6 0 1 781.55 390.19 Z M 814.42 400.81 Q 815.85 401.37 817.08 400.75 A 1.12 0.88 86.8 0 0 817.59 400.02 L 820.20 387.30 A 0.61 0.57 6.8 0 1 820.81 386.85 L 825.75 387.06 A 0.42 0.41 6.5 0 1 826.15 387.55 Q 824.99 393.95 823.87 399.83 Q 823.57 401.43 826.27 400.74 A 1.67 1.60 88.8 0 0 827.46 399.45 L 830.17 385.02 A 0.67 0.66 5.9 0 0 829.53 384.24 L 818.58 383.95 A 1.44 1.38 6.2 0 0 817.14 385.05 L 814.05 400.12 A 0.62 0.61 -73.4 0 0 814.42 400.81 Z M 834.0432 400.2985 A 9.42 7.45 125.4 0 0 845.5727 396.9356 A 9.42 7.45 125.4 0 0 844.9568 384.9415 A 9.42 7.45 125.4 0 0 833.4273 388.3044 A 9.42 7.45 125.4 0 0 834.0432 400.2985 Z M 856.89 394.31 L 856.14 400.19 A 0.63 0.58 -78.7 0 0 856.54 400.85 Q 859.10 401.64 859.49 399.35 Q 859.70 398.14 859.78 397.82 Q 859.97 397.05 860.03 396.25 Q 860.30 392.90 862.28 394.10 Q 863.19 394.66 863.52 395.91 Q 864.01 397.76 864.06 399.70 A 1.21 1.21 3.7 0 0 865.08 400.86 Q 867.90 401.30 867.79 399.50 Q 867.59 396.33 865.98 392.67 A 0.82 0.81 53.2 0 1 866.10 391.81 Q 868.82 388.63 870.26 385.03 A 0.52 0.51 -69.1 0 0 869.97 384.36 Q 867.30 383.36 866.21 386.20 Q 865.17 388.91 862.94 390.69 Q 860.59 392.55 861.44 389.19 Q 861.74 387.97 862.07 386.77 Q 863.03 383.23 859.78 384.38 A 1.05 1.03 89.6 0 0 859.15 385.03 Q 858.40 387.21 858.00 389.50 Q 857.27 391.95 855.79 390.52 Q 855.21 389.95 854.96 388.89 Q 854.54 387.09 854.31 385.24 A 1.06 0.88 -82.8 0 0 853.83 384.48 Q 852.72 383.88 851.51 384.36 A 0.76 0.70 80.7 0 0 851.05 385.06 Q 851.02 388.67 852.56 391.92 A 0.73 0.72 -34.6 0 1 852.40 392.74 Q 848.92 396.07 847.47 400.21 A 0.48 0.47 -73.0 0 0 847.79 400.83 Q 851.09 401.66 852.06 398.06 Q 853.01 394.55 856.44 393.89 A 0.38 0.38 87.8 0 1 856.89 394.31 Z M 880.42 397.51 Q 880.83 398.41 880.83 399.43 A 1.49 1.06 -73.8 0 0 881.14 400.32 Q 882.71 402.01 883.77 400.45 Q 884.28 399.70 884.13 398.44 Q 883.35 391.68 882.09 384.99 A 0.99 0.91 -84.1 0 0 881.56 384.28 Q 878.54 382.85 877.06 385.56 Q 873.10 392.86 869.16 400.24 A 0.50 0.49 19.6 0 0 869.51 400.96 Q 871.83 401.38 874.86 397.17 A 0.38 0.37 -71.3 0 1 875.19 397.00 L 879.68 397.04 A 0.84 0.80 -11.1 0 1 880.42 397.51 Z M 886.97 397.62 Q 885.27 398.35 884.84 399.93 A 1.05 1.05 -85.9 0 0 885.98 401.25 Q 888.77 400.90 890.44 398.69 Q 893.09 395.17 894.86 388.07 Q 895.25 386.48 898.17 387.35 A 0.75 0.74 -76.3 0 1 898.68 388.21 L 896.35 400.21 A 0.54 0.53 12.3 0 0 896.76 400.83 Q 899.13 401.37 899.75 400.00 Q 900.00 399.44 902.66 384.99 A 0.51 0.50 10.3 0 0 902.25 384.41 Q 897.79 383.68 893.32 384.25 A 0.77 0.76 -85.3 0 0 892.68 384.80 Q 890.91 391.21 887.68 397.00 A 1.63 1.24 -3.7 0 1 886.97 397.62 Z M 911.21 392.15 Q 910.55 393.37 910.25 392.01 Q 909.53 388.70 908.38 385.53 Q 908.01 384.51 907.34 384.16 Q 906.30 383.64 905.36 384.41 A 0.86 0.75 65.6 0 0 905.11 385.23 Q 906.17 389.90 907.59 394.47 Q 908.11 396.13 907.70 397.07 Q 907.00 398.69 904.72 398.13 A 0.66 0.58 18.4 0 0 904.00 398.43 Q 903.55 399.34 903.79 400.33 A 0.89 0.83 2.3 0 0 904.42 400.96 Q 906.53 401.54 908.36 400.71 Q 909.67 400.12 910.99 398.12 Q 915.21 391.78 918.79 385.11 A 0.47 0.47 -66.5 0 0 918.53 384.45 Q 917.28 383.98 916.38 384.25 Q 915.68 384.45 914.97 385.61 Q 912.99 388.84 911.21 392.15 Z M 929.88 391.31 L 928.42 400.19 A 0.65 0.56 -76.2 0 0 928.77 400.87 Q 931.72 401.89 932.00 398.75 Q 932.08 397.83 934.50 386.31 Q 934.77 385.03 934.53 384.55 Q 934.06 383.61 932.14 384.55 Q 931.41 384.90 930.93 385.44 L 923.03 394.33 Q 922.36 395.08 922.56 394.07 L 924.29 385.15 A 0.70 0.64 18.4 0 0 923.88 384.42 Q 921.64 383.41 921.21 385.35 Q 919.56 392.69 918.07 400.02 A 0.80 0.79 -82.7 0 0 918.80 400.97 Q 920.96 401.10 922.05 399.81 Q 925.75 395.42 929.61 391.17 Q 929.97 390.78 929.88 391.31 Z M 938.19 400.06 Q 942.14 402.62 946.11 400.09 Q 946.79 399.65 947.02 399.07 Q 947.35 398.22 946.86 397.60 A 0.75 0.61 -28.7 0 0 946.04 397.45 Q 939.03 400.44 939.92 392.77 Q 940.24 390.06 942.24 388.24 Q 944.81 385.89 947.82 387.50 A 0.98 0.80 41.3 0 0 948.70 387.53 Q 950.03 386.76 949.32 385.58 Q 948.86 384.82 947.78 384.41 Q 944.84 383.30 942.00 384.75 Q 936.91 387.35 936.14 392.84 Q 935.80 395.25 936.00 396.65 Q 936.31 398.85 938.19 400.06 Z M 950.63 386.31 A 1.76 1.76 -21.7 0 0 952.50 387.11 Q 955.10 386.54 954.75 388.50 Q 953.30 394.29 952.39 400.20 A 0.61 0.59 -76.3 0 0 952.78 400.87 Q 955.57 401.82 955.95 399.17 Q 956.13 397.86 956.13 397.85 Q 957.16 392.80 958.08 388.25 A 1.65 1.65 -79.0 0 1 960.00 386.95 Q 963.46 387.61 963.36 384.94 A 0.61 0.58 2.3 0 0 962.82 384.38 Q 954.38 383.44 952.06 384.06 Q 949.65 384.72 950.63 386.31 Z M 970.82 397.55 L 971.36 400.06 A 1.13 0.87 -87.1 0 0 971.87 400.80 Q 973.64 401.70 974.38 400.49 Q 974.80 399.81 974.58 398.45 Q 973.49 391.76 972.51 385.05 A 0.98 0.88 -83.7 0 0 971.99 384.33 Q 970.33 383.56 968.64 384.23 A 1.49 1.41 -85.5 0 0 967.93 384.87 L 959.52 400.28 A 0.48 0.47 17.9 0 0 959.89 400.98 Q 963.30 401.37 964.31 397.91 A 0.83 0.62 -80.3 0 1 964.93 397.32 L 970.19 397.00 A 0.70 0.59 81.2 0 1 970.82 397.55 Z M 401.12 389.80 L 399.41 400.20 A 0.64 0.57 -75.2 0 0 399.76 400.89 Q 401.21 401.45 402.33 400.53 A 1.51 1.24 79.8 0 0 402.79 399.71 L 405.42 385.25 A 0.77 0.68 -71.2 0 0 405.09 384.47 Q 404.52 384.15 403.85 384.14 Q 402.52 384.13 402.16 384.11 Q 400.62 384.02 399.85 385.34 Q 397.11 390.08 394.04 395.10 Q 393.45 396.06 393.25 394.92 L 391.55 385.04 A 0.79 0.76 1.9 0 0 390.96 384.43 Q 388.87 383.92 386.79 384.43 A 0.80 0.79 88.9 0 0 386.20 385.05 L 383.18 400.15 A 0.65 0.65 8.4 0 0 383.76 400.92 Q 386.78 401.23 386.50 399.00 Q 386.40 398.17 387.85 393.04 Q 387.99 392.52 388.04 391.94 Q 388.49 386.51 389.69 392.31 Q 390.12 396.17 390.95 399.95 A 1.28 1.04 -85.0 0 0 391.47 400.72 Q 392.46 401.29 393.46 400.97 Q 394.29 400.70 394.95 399.44 Q 397.61 394.38 400.90 389.72 Q 401.21 389.28 401.12 389.80 Z M 415.62 393.57 Q 413.52 396.11 412.06 399.06 Q 410.06 401.11 413.66 400.97 A 2.18 2.17 -82.5 0 0 415.67 399.42 Q 416.42 396.93 419.00 394.75 Q 419.93 393.96 420.88 394.67 A 0.90 0.85 -68.9 0 1 421.22 395.50 L 420.60 400.02 A 0.77 0.63 -74.1 0 0 420.92 400.76 Q 422.14 401.40 423.37 400.81 A 1.04 1.01 83.2 0 0 423.93 400.08 L 426.90 384.77 A 0.41 0.40 6.1 0 0 426.51 384.30 Q 423.84 384.20 421.00 384.19 Q 415.74 384.16 414.31 389.06 Q 413.67 391.27 415.54 392.88 A 0.51 0.49 39.6 0 1 415.62 393.57 Z M 796.17 393.61 Q 793.52 396.57 792.00 400.22 A 0.50 0.49 -69.1 0 0 792.28 400.88 Q 793.70 401.38 794.85 400.79 Q 795.66 400.38 796.41 398.62 Q 797.46 396.14 799.44 394.69 Q 800.36 394.01 801.47 394.37 A 0.63 0.60 14.5 0 1 801.90 395.06 L 800.98 399.82 A 0.97 0.88 -79.7 0 0 801.68 400.95 Q 804.37 401.40 804.55 399.46 Q 804.70 397.69 804.74 397.55 Q 806.28 391.35 807.35 385.05 A 0.51 0.50 -79.7 0 0 806.95 384.46 Q 803.16 383.69 799.56 384.63 Q 796.70 385.37 795.49 387.26 Q 793.78 389.92 796.18 392.87 A 0.58 0.56 47.2 0 1 796.17 393.61 Z"/>
<path fill="rgb(255,255,255)" fill-opacity="1.000" d="M 238.06 134.44 Q 241.02 138.61 243.23 144.51 Q 246.60 153.48 248.79 162.80 Q 255.02 189.31 258.95 216.26 Q 260.17 224.60 261.45 232.93 Q 262.82 241.79 263.85 249.60 Q 271.39 306.61 279.92 363.47 Q 281.24 372.28 283.04 380.99 Q 284.35 387.32 287.05 393.16 Q 287.46 394.05 287.93 393.20 Q 290.77 388.09 292.76 382.62 Q 297.91 368.51 303.56 359.81 Q 307.57 353.64 314.46 352.16 Q 316.38 351.75 327.09 351.75 Q 658.80 351.75 990.71 351.75 A 0.28 0.28 4.4 0 1 990.99 352.07 L 988.04 369.45 A 0.62 0.58 4.3 0 1 987.43 369.94 L 319.80 370.06 A 2.01 2.00 13.1 0 0 318.00 371.18 Q 312.74 381.90 308.43 393.18 Q 306.31 398.74 303.00 403.58 Q 299.18 409.16 294.55 411.33 Q 288.22 414.30 281.74 411.65 Q 276.38 409.46 272.44 403.87 Q 268.94 398.89 267.19 392.56 Q 263.32 378.62 261.53 366.53 Q 254.65 320.24 248.59 273.82 Q 243.92 238.09 238.13 202.52 Q 235.40 185.69 231.69 169.06 Q 229.52 159.35 226.04 150.02 Q 224.93 147.04 223.67 145.72 Q 222.23 144.20 220.96 145.86 Q 218.42 149.20 216.85 152.83 Q 211.71 164.68 208.33 177.16 Q 200.16 207.31 193.70 237.89 Q 185.24 277.97 177.43 318.18 Q 175.22 329.52 172.44 340.73 Q 170.00 350.56 163.52 358.29 Q 153.81 369.88 138.50 369.96 Q 131.00 370.00 123.08 370.00 A 0.43 0.43 -84.9 0 1 122.66 369.49 L 125.53 352.29 A 0.68 0.65 -84.4 0 1 126.19 351.73 Q 132.22 351.86 137.81 351.68 Q 143.02 351.51 145.86 349.90 Q 150.30 347.37 152.56 342.27 Q 155.11 336.49 156.33 330.27 Q 163.84 291.97 171.75 253.75 Q 178.96 217.67 188.12 182.03 Q 191.35 169.44 195.65 157.17 Q 199.20 147.04 204.44 138.44 Q 206.48 135.08 209.37 132.20 Q 212.28 129.29 215.77 127.68 Q 228.93 121.59 238.06 134.44 Z"/>
<path fill="rgb(0,10,14)" fill-opacity="1.000" d="M 478.50 210.25 Q 480.24 209.81 479.75 210.96 L 457.00 211.04 Q 467.69 209.34 478.50 210.25 Z"/>
<path fill="rgb(0,10,14)" fill-opacity="1.000" d="M 803.00 210.06 Q 811.18 210.11 819.36 210.30 A 0.41 0.33 0.9 0 1 819.76 210.63 L 819.75 210.96 L 793.00 211.04 Q 797.94 210.03 803.00 210.06 Z"/>
<path fill="rgb(255,255,255)" fill-opacity="1.000" d="M 424.30 211.00 A 0.97 0.96 88.8 0 1 425.26 211.93 L 427.49 276.82 Q 427.55 278.40 428.18 276.95 Q 442.04 245.32 455.56 213.56 Q 456.47 211.43 457.00 211.04 L 479.75 210.96 L 524.90 211.00 A 0.82 0.82 5.7 0 1 525.71 211.98 L 501.39 331.78 A 1.19 1.17 -84.1 0 1 500.23 332.74 L 459.76 332.51 A 0.42 0.42 5.7 0 1 459.35 332.01 L 477.94 239.80 Q 478.91 235.00 476.89 239.45 L 434.84 331.91 A 1.43 1.43 -77.8 0 1 433.54 332.75 L 396.23 332.75 A 0.74 0.73 -1.2 0 1 395.49 332.05 Q 393.49 285.54 391.63 238.81 Q 391.55 236.73 390.77 237.63 Q 390.52 237.92 390.41 238.46 Q 380.74 285.31 371.29 332.20 A 0.62 0.61 5.7 0 1 370.68 332.69 L 331.81 332.69 A 0.41 0.41 -84.2 0 1 331.41 332.20 L 355.84 211.68 A 0.62 0.60 -84.1 0 1 356.43 211.18 L 424.30 211.00 Z"/>
<path fill="rgb(255,255,255)" fill-opacity="1.000" d="M 760.30 211.00 A 0.97 0.96 88.8 0 1 761.26 211.93 L 763.49 276.82 Q 763.55 278.40 764.18 276.95 Q 778.04 245.32 791.56 213.56 Q 792.47 211.43 793.00 211.04 L 819.75 210.96 L 860.97 211.00 A 0.72 0.72 5.6 0 1 861.68 211.86 L 837.34 331.76 A 1.21 1.20 -84.5 0 1 836.16 332.74 L 795.75 332.51 A 0.42 0.41 -84.2 0 1 795.35 332.01 L 813.94 239.80 Q 814.91 235.00 812.89 239.45 L 770.84 331.91 A 1.43 1.43 -77.8 0 1 769.54 332.75 L 732.23 332.75 A 0.74 0.73 -1.2 0 1 731.49 332.05 Q 729.49 285.54 727.63 238.81 Q 727.55 236.73 726.77 237.63 Q 726.52 237.92 726.41 238.46 Q 716.74 285.31 707.29 332.20 A 0.62 0.61 5.7 0 1 706.68 332.69 L 667.81 332.69 A 0.41 0.41 -84.2 0 1 667.41 332.20 L 691.84 211.68 A 0.62 0.60 -84.1 0 1 692.43 211.18 L 760.30 211.00 Z"/>
<path fill="rgb(255,255,255)" fill-opacity="1.000" d="M 628.87 213.99 L 656.97 331.88 A 0.68 0.67 83.2 0 1 656.32 332.72 L 618.26 332.98 A 1.38 1.37 84.2 0 1 616.90 331.86 L 613.23 313.28 A 1.31 1.30 -5.4 0 0 611.96 312.24 L 569.78 311.99 Q 567.69 311.97 566.69 313.73 L 556.31 331.96 A 2.05 2.02 -75.0 0 1 554.54 333.00 L 513.84 333.00 Q 513.01 333.00 513.46 332.30 L 589.17 213.86 A 0.92 0.91 16.3 0 1 589.94 213.44 L 628.26 213.50 A 0.64 0.62 82.9 0 1 628.87 213.99 Z M 601.31 253.72 L 584.73 282.40 Q 584.38 283.00 585.07 283.00 L 606.83 283.00 A 0.43 0.43 -5.5 0 0 607.25 282.49 L 601.74 253.79 Q 601.62 253.19 601.31 253.72 Z"/>
<path fill="rgb(255,255,255)" fill-opacity="1.000" d="M 926.73 213.50 L 965.32 213.50 A 0.66 0.65 -6.7 0 1 965.96 214.00 L 994.12 332.14 A 0.70 0.70 83.4 0 1 993.44 333.00 L 955.12 333.00 A 1.47 1.42 84.3 0 1 953.72 331.81 L 950.05 312.81 A 0.63 0.62 -5.5 0 0 949.43 312.31 L 905.12 312.25 A 0.94 0.93 -75.0 0 0 904.31 312.72 L 893.23 332.09 A 1.81 1.79 -75.0 0 1 891.67 333.00 L 851.41 333.00 Q 850.04 333.00 850.78 331.85 L 925.94 213.94 A 0.95 0.93 -73.4 0 1 926.73 213.50 Z M 938.27 253.80 L 921.64 282.46 Q 921.32 283.00 921.95 283.00 L 943.63 283.00 A 0.57 0.57 84.6 0 0 944.19 282.32 L 938.78 253.89 Q 938.64 253.16 938.27 253.80 Z"/>
<path fill="rgb(1,102,174)" fill-opacity="1.000" d="M 938.78 253.89 L 944.19 282.32 A 0.57 0.57 84.6 0 1 943.63 283.00 L 921.95 283.00 Q 921.32 283.00 921.64 282.46 L 938.27 253.80 Q 938.64 253.16 938.78 253.89 Z"/>
<path fill="rgb(1,102,174)" fill-opacity="1.000" d="M 601.74 253.79 L 607.25 282.49 A 0.43 0.43 -5.5 0 1 606.83 283.00 L 585.07 283.00 Q 584.38 283.00 584.73 282.40 L 601.31 253.72 Q 601.62 253.19 601.74 253.79 Z"/>
<path fill="rgb(255,255,255)" fill-opacity="1.000" d="M 1013.79 344.09 L 1077.73 363.24 Q 1078.20 363.38 1077.75 363.59 Q 1076.24 364.30 1074.53 364.66 Q 1041.42 371.60 1007.26 378.45 A 0.61 0.61 0.7 0 1 1006.54 377.73 L 1012.87 344.64 A 0.73 0.72 13.8 0 1 1013.79 344.09 Z"/>
<path fill="rgb(255,255,255)" fill-opacity="1.000" d="M 928.06 381.04 Q 930.02 381.33 931.06 379.75 A 1.57 1.03 -73.1 0 1 931.78 379.15 Q 933.68 378.58 933.58 380.15 Q 933.53 380.89 932.89 381.52 Q 929.84 384.50 925.85 382.60 Q 924.90 382.15 924.62 381.42 Q 924.37 380.79 924.46 380.06 A 0.98 0.96 -9.4 0 1 925.00 379.32 Q 926.91 378.37 927.46 380.45 A 0.83 0.70 85.0 0 0 928.06 381.04 Z"/>
<path fill="rgb(255,255,255)" fill-opacity="1.000" d="M 339.54 386.30 Q 340.24 390.13 336.92 392.25 A 0.35 0.35 48.3 0 0 336.89 392.82 L 337.92 393.63 A 1.41 1.21 17.8 0 1 338.41 394.43 Q 339.18 398.99 334.56 400.56 Q 331.17 401.72 328.17 400.73 A 1.37 1.09 -0.3 0 1 327.42 400.14 Q 326.91 399.19 327.28 398.21 A 0.54 0.49 20.4 0 1 327.96 397.94 Q 330.56 398.94 333.11 398.00 A 1.51 1.42 -82.8 0 0 333.84 397.40 Q 336.01 394.06 332.40 393.78 Q 331.07 393.67 330.63 393.51 Q 328.64 392.79 330.65 391.34 A 1.42 1.11 25.5 0 1 331.55 391.14 Q 334.84 391.52 336.00 388.50 Q 336.92 386.10 333.75 386.75 L 330.93 387.33 A 0.94 0.83 0.6 0 1 329.81 386.32 Q 330.13 385.19 331.03 384.72 Q 331.35 384.56 332.83 384.13 Q 336.36 383.12 339.07 385.48 A 1.42 1.37 -75.8 0 1 339.54 386.30 Z"/>
<path fill="rgb(255,255,255)" fill-opacity="1.000" d="M 351.23 384.11 A 1.23 1.22 -87.9 0 1 352.15 385.11 Q 353.33 392.43 354.55 399.54 Q 354.87 401.46 351.77 400.79 A 1.15 1.02 -89.9 0 1 350.97 399.88 L 350.56 397.54 A 0.64 0.60 83.5 0 0 349.94 397.01 L 344.56 397.23 A 0.72 0.59 -83.2 0 0 343.97 397.80 Q 343.25 401.13 339.98 401.01 A 0.81 0.80 -74.5 0 1 339.31 399.82 Q 342.53 393.85 345.83 387.93 Q 345.87 387.86 346.65 386.14 Q 347.96 383.29 351.23 384.11 Z M 348.77 388.69 L 346.17 393.54 A 0.53 0.53 26.1 0 0 346.42 394.27 Q 347.43 394.72 349.53 394.16 A 0.79 0.74 78.8 0 0 350.06 393.31 L 349.47 388.88 Q 349.31 387.69 348.77 388.69 Z"/>
<path fill="rgb(255,255,255)" fill-opacity="1.000" d="M 360.32 385.05 Q 359.86 387.13 359.75 389.25 Q 359.13 392.31 361.77 392.11 Q 362.01 392.09 363.24 392.07 Q 363.75 392.06 364.23 391.89 A 0.89 0.77 85.8 0 0 364.75 391.19 Q 365.08 388.69 365.75 386.25 Q 365.49 383.71 368.65 384.08 A 0.69 0.69 8.1 0 1 369.26 384.89 Q 368.00 392.20 366.63 398.39 Q 366.62 398.45 366.55 399.61 Q 366.46 401.06 364.06 400.97 A 1.15 1.04 -84.9 0 1 363.08 399.67 L 363.67 395.57 A 0.45 0.42 1.4 0 0 363.19 395.10 Q 354.20 395.65 356.38 387.45 Q 357.03 385.04 357.03 385.04 Q 357.75 383.22 359.99 384.32 A 0.66 0.63 -70.6 0 1 360.32 385.05 Z"/>
<path fill="rgb(255,255,255)" fill-opacity="1.000" d="M 374.27 384.33 L 382.01 384.19 A 0.68 0.61 82.6 0 1 382.63 384.73 Q 383.31 387.68 379.75 386.98 Q 374.84 386.02 375.70 390.45 A 0.73 0.56 -0.1 0 0 376.32 390.92 L 380.07 391.31 A 0.65 0.64 -88.0 0 1 380.64 391.93 Q 380.67 392.62 380.22 393.11 Q 379.87 393.49 379.16 393.53 Q 377.23 393.63 375.31 393.77 A 0.74 0.57 -0.7 0 0 374.65 394.29 L 374.28 397.89 A 0.63 0.55 2.8 0 0 374.92 398.50 L 379.25 398.50 A 0.86 0.73 -10.5 0 1 380.00 398.93 Q 380.50 399.97 379.61 400.59 Q 379.13 400.93 378.17 400.96 Q 374.76 401.04 370.69 400.99 A 0.57 0.56 5.6 0 1 370.14 400.33 L 373.00 385.49 A 1.43 1.29 -84.5 0 1 374.27 384.33 Z"/>
<path fill="rgb(255,255,255)" fill-opacity="1.000" d="M 447.28 385.06 Q 448.09 385.87 447.78 387.07 A 0.94 0.94 19.6 0 1 446.47 387.69 Q 442.83 386.00 440.19 388.44 Q 438.42 390.07 438.07 394.26 Q 437.74 398.22 441.30 398.29 Q 442.04 398.31 443.13 397.89 Q 447.31 396.31 444.57 399.80 Q 443.99 400.55 443.15 400.84 Q 440.01 401.94 437.08 400.39 Q 434.88 399.22 434.50 396.76 Q 433.82 392.37 436.09 388.58 Q 439.38 383.04 445.58 384.28 Q 446.73 384.51 447.28 385.06 Z"/>
<path fill="rgb(255,255,255)" fill-opacity="1.000" d="M 453.05 388.66 Q 452.48 390.44 454.19 391.17 Q 455.39 391.69 456.03 390.01 Q 456.66 388.37 456.77 388.18 Q 459.04 384.27 464.00 384.00 Q 466.57 383.86 468.38 385.08 Q 470.03 386.19 470.52 388.64 Q 471.52 393.62 468.44 397.69 Q 464.84 402.43 459.14 401.03 Q 456.99 400.50 455.96 399.09 Q 454.81 397.50 454.81 395.25 Q 454.81 392.98 452.76 393.85 A 1.05 0.94 86.8 0 0 452.20 394.55 Q 451.65 397.01 451.25 399.50 Q 450.73 401.48 448.03 400.90 A 0.52 0.51 12.3 0 1 447.63 400.29 L 450.64 385.24 A 0.98 0.96 84.2 0 1 451.20 384.54 Q 454.89 382.91 453.05 388.66 Z M 460.3628 398.2728 A 6.16 4.06 112.7 0 0 466.4855 394.1568 A 6.16 4.06 112.7 0 0 465.1172 386.9072 A 6.16 4.06 112.7 0 0 458.9945 391.0232 A 6.16 4.06 112.7 0 0 460.3628 398.2728 Z"/>
<path fill="rgb(255,255,255)" fill-opacity="1.000" d="M 487.43 384.06 A 0.58 0.57 -85.4 0 1 488.00 384.74 Q 487.10 390.00 486.08 395.24 Q 486.07 395.29 485.64 396.59 Q 485.20 397.95 486.70 398.44 A 0.69 0.60 10.8 0 1 487.18 399.05 Q 487.09 401.93 486.01 404.60 A 1.56 1.19 -87.1 0 1 485.39 405.33 Q 484.19 405.98 483.49 404.94 A 1.37 0.52 -75.6 0 1 483.39 404.03 L 483.71 401.56 A 0.52 0.46 2.9 0 0 483.19 401.05 L 473.98 401.00 A 1.55 1.52 -89.4 0 0 472.45 402.53 Q 472.39 405.72 469.92 405.40 A 0.66 0.63 89.8 0 1 469.37 404.82 Q 469.10 402.66 469.71 400.65 Q 470.10 399.36 472.05 397.41 Q 474.58 394.88 475.56 391.27 Q 476.39 388.21 477.67 384.80 A 0.84 0.79 -79.6 0 1 478.41 384.26 L 487.43 384.06 Z M 479.98 388.45 Q 478.31 393.16 475.98 397.57 A 0.36 0.33 -74.6 0 0 476.25 398.09 L 481.31 398.14 A 0.80 0.63 -78.8 0 0 481.97 397.58 Q 483.56 392.69 483.91 387.57 A 0.72 0.66 -78.9 0 0 483.48 386.87 Q 480.89 385.89 479.98 388.45 Z"/>
<path fill="rgb(255,255,255)" fill-opacity="1.000" d="M 500.48 384.48 A 1.01 0.98 4.9 0 1 501.17 385.28 L 503.29 399.58 A 1.21 1.19 -7.4 0 1 502.23 400.94 Q 499.34 401.28 499.79 398.49 A 1.28 1.27 6.5 0 0 498.61 397.01 Q 497.85 396.95 496.28 396.76 Q 493.29 396.40 492.33 398.64 Q 491.64 400.24 491.17 400.54 Q 490.20 401.15 488.74 400.97 A 0.66 0.65 -72.2 0 1 488.25 400.01 Q 492.12 392.76 495.95 385.50 Q 497.06 383.39 500.48 384.48 Z M 497.76 388.59 L 494.98 393.80 A 0.48 0.47 14.2 0 0 495.40 394.50 L 498.45 394.50 A 0.55 0.49 -3.2 0 0 499.00 393.95 L 498.29 388.64 Q 498.18 387.80 497.76 388.59 Z"/>
<path fill="rgb(255,255,255)" fill-opacity="1.000" d="M 526.99 384.23 A 0.87 0.83 -83.7 0 1 527.80 385.29 Q 526.31 391.81 525.21 398.23 Q 524.91 400.01 524.34 400.61 Q 523.36 401.62 521.68 400.74 A 0.72 0.62 -72.7 0 1 521.36 400.01 L 523.62 387.56 A 0.47 0.43 -85.6 0 0 523.19 387.01 L 518.31 387.22 A 0.79 0.65 -82.0 0 0 517.68 387.80 Q 516.05 393.75 515.50 398.50 Q 515.12 401.80 512.04 400.86 A 0.58 0.57 -74.9 0 1 511.66 400.19 L 514.82 385.11 A 1.05 1.03 -84.2 0 1 515.83 384.27 L 526.99 384.23 Z"/>
<path fill="rgb(255,255,255)" fill-opacity="1.000" d="M 531.5273 400.2901 A 9.47 7.45 125.6 0 1 530.9824 388.2532 A 9.47 7.45 125.6 0 1 542.5527 384.8899 A 9.47 7.45 125.6 0 1 543.0976 396.9268 A 9.47 7.45 125.6 0 1 531.5273 400.2901 Z M 534.5363 398.2301 A 6.18 4.08 113.9 0 0 540.7701 394.2330 A 6.18 4.08 113.9 0 0 539.5438 386.9299 A 6.18 4.08 113.9 0 0 533.3098 390.9270 A 6.18 4.08 113.9 0 0 534.5363 398.2301 Z"/>
<path fill="rgb(255,255,255)" fill-opacity="1.000" d="M 559.87 385.08 Q 560.86 386.52 559.63 387.68 A 0.76 0.66 35.0 0 1 558.81 387.77 Q 553.75 385.21 551.37 390.59 Q 549.95 393.80 551.13 396.97 A 1.28 1.27 -86.4 0 0 551.75 397.68 Q 554.44 399.06 556.86 397.44 Q 558.08 396.64 558.01 398.09 Q 557.89 400.54 555.60 401.00 Q 546.48 402.82 546.98 393.50 Q 547.12 390.92 548.44 388.71 Q 552.16 382.54 559.08 384.54 A 1.54 1.25 -4.7 0 1 559.87 385.08 Z"/>
<path fill="rgb(255,255,255)" fill-opacity="1.000" d="M 574.14 384.74 Q 574.80 387.48 570.97 386.92 A 1.83 1.83 9.1 0 0 568.91 388.41 Q 568.02 393.45 566.93 399.34 Q 566.55 401.40 563.81 400.92 A 0.52 0.50 10.0 0 1 563.38 400.33 L 565.69 387.92 A 0.78 0.74 -81.0 0 0 565.06 387.01 Q 564.60 386.95 563.75 387.04 Q 560.38 387.39 561.81 384.74 A 0.96 0.91 10.3 0 1 562.55 384.26 Q 568.03 383.68 573.51 384.20 A 0.72 0.69 -3.2 0 1 574.14 384.74 Z"/>
<path fill="rgb(255,255,255)" fill-opacity="1.000" d="M 578.80 385.67 Q 579.82 388.92 580.69 392.21 Q 580.81 392.69 581.11 392.29 Q 583.65 388.88 585.56 385.06 Q 586.54 383.50 588.87 384.41 A 0.52 0.50 25.6 0 1 589.15 385.15 L 580.97 398.53 Q 579.91 400.27 577.64 400.90 Q 573.59 402.04 573.97 398.76 A 0.99 0.99 10.8 0 1 575.21 397.92 Q 578.34 398.77 578.25 395.75 Q 576.68 390.52 575.37 385.23 A 0.86 0.76 64.5 0 1 575.61 384.40 Q 576.64 383.53 577.73 384.14 Q 578.44 384.54 578.80 385.67 Z"/>
<path fill="rgb(255,255,255)" fill-opacity="1.000" d="M 592.98 384.00 L 602.94 384.00 A 1.40 1.40 5.4 0 1 604.32 385.66 Q 603.00 392.47 601.75 398.95 Q 601.15 402.01 598.50 400.68 A 0.71 0.63 -72.8 0 1 598.17 399.95 L 600.37 387.56 A 0.45 0.44 4.9 0 0 599.93 387.04 L 594.94 387.01 A 0.67 0.65 -83.3 0 0 594.30 387.53 Q 592.99 393.24 592.11 398.83 Q 591.88 400.28 591.19 400.77 Q 590.20 401.47 588.70 400.82 A 0.49 0.47 18.1 0 1 588.42 400.30 L 591.45 385.21 A 1.57 1.50 5.4 0 1 592.98 384.00 Z"/>
<path fill="rgb(255,255,255)" fill-opacity="1.000" d="M 611.12 384.27 A 0.62 0.62 -77.5 0 1 611.56 384.97 L 610.14 393.56 Q 609.90 395.01 610.80 393.83 Q 614.57 388.86 619.00 384.50 Q 620.20 383.31 621.41 384.39 A 0.99 0.84 -66.1 0 1 621.66 385.25 L 618.91 399.83 A 1.29 1.06 82.4 0 1 618.42 400.62 Q 617.32 401.36 616.02 400.89 A 0.63 0.60 -75.4 0 1 615.64 400.20 L 617.09 391.56 Q 617.19 390.99 616.83 391.40 L 609.84 399.22 Q 608.55 400.65 607.09 401.03 Q 604.81 401.60 605.30 399.62 Q 605.59 398.46 605.61 398.36 Q 606.62 392.39 608.00 386.50 Q 607.78 383.36 611.12 384.27 Z"/>
<path fill="rgb(255,255,255)" fill-opacity="1.000" d="M 630.14 384.07 L 637.95 384.46 A 0.51 0.46 -83.0 0 1 638.37 385.05 L 635.61 400.01 A 1.15 1.04 82.6 0 1 635.08 400.77 Q 633.88 401.44 632.67 400.77 A 0.76 0.64 -72.7 0 1 632.35 400.01 L 634.38 387.56 A 0.48 0.43 -86.0 0 0 633.95 387.00 L 631.68 387.09 A 0.82 0.63 -79.3 0 0 631.04 387.66 Q 629.65 391.93 627.75 396.00 Q 626.52 399.94 622.77 401.06 Q 621.82 401.34 621.23 401.05 Q 620.47 400.67 620.79 399.67 Q 620.97 399.14 621.59 398.66 Q 623.48 397.21 623.56 397.06 Q 626.60 391.89 628.15 385.70 A 2.14 1.90 -80.8 0 1 630.14 384.07 Z"/>
<path fill="rgb(255,255,255)" fill-opacity="1.000" d="M 656.87 386.14 Q 657.96 388.30 656.10 390.49 Q 655.78 390.87 654.85 391.38 Q 653.33 392.23 655.12 393.21 A 1.41 1.14 9.6 0 1 655.74 393.91 Q 656.97 397.52 654.31 399.56 Q 650.84 402.23 646.09 400.86 Q 645.08 400.56 644.58 399.82 Q 643.52 398.27 645.44 397.89 A 1.82 1.07 38.3 0 1 646.40 398.02 Q 648.76 398.97 651.00 397.91 A 1.26 1.21 88.7 0 0 651.63 397.22 Q 653.26 392.97 648.24 393.67 A 0.76 0.69 -17.2 0 1 647.49 393.32 Q 646.15 390.91 649.75 390.99 Q 653.71 391.09 653.27 387.55 A 0.77 0.76 3.6 0 0 652.70 386.92 Q 650.36 386.30 648.02 387.53 Q 647.00 388.06 647.09 386.91 Q 647.19 385.59 648.58 384.91 Q 651.13 383.65 653.78 384.06 Q 656.00 384.40 656.87 386.14 Z"/>
<path fill="rgb(255,255,255)" fill-opacity="1.000" d="M 669.65 384.94 L 671.92 399.93 A 0.78 0.78 -9.6 0 1 671.29 400.81 Q 667.77 401.46 668.25 398.99 A 1.63 1.63 -83.8 0 0 666.69 397.04 Q 666.15 397.03 665.06 397.15 Q 664.58 397.20 663.44 397.14 Q 661.64 397.03 660.87 398.42 Q 659.66 400.61 659.56 400.69 Q 658.46 401.49 656.94 400.74 A 0.50 0.48 -62.9 0 1 656.73 400.06 L 664.82 384.99 A 1.50 1.41 -86.7 0 1 665.51 384.34 Q 667.29 383.54 669.10 384.24 A 0.91 0.86 -84.6 0 1 669.65 384.94 Z M 666.22 388.88 L 663.77 393.73 A 0.45 0.44 21.4 0 0 664.05 394.35 Q 665.52 394.77 667.02 394.39 A 0.61 0.53 80.8 0 0 667.41 393.76 L 666.94 389.07 Q 666.81 387.72 666.22 388.88 Z"/>
<path fill="rgb(255,255,255)" fill-opacity="1.000" d="M 678.51 384.00 L 687.42 384.00 A 0.81 0.80 -1.5 0 1 688.23 384.76 Q 688.39 387.17 686.25 387.00 Q 684.98 386.90 680.80 387.05 A 0.67 0.55 1.3 0 0 680.17 387.55 L 679.89 390.32 A 0.65 0.53 8.4 0 0 680.43 390.91 Q 682.45 391.29 684.50 391.50 Q 687.89 392.65 686.98 396.29 Q 686.08 399.87 682.41 400.55 Q 679.11 401.16 674.93 400.96 A 0.73 0.73 -83.2 0 1 674.25 400.09 L 677.22 385.07 A 1.33 1.31 -84.4 0 1 678.51 384.00 Z M 679.18 398.38 Q 684.03 398.98 683.28 394.55 A 0.83 0.80 4.3 0 0 682.71 393.91 Q 677.40 392.29 678.57 397.82 A 0.72 0.71 87.1 0 0 679.18 398.38 Z"/>
<path fill="rgb(255,255,255)" fill-opacity="1.000" d="M 701.83 384.80 Q 702.32 386.85 700.40 386.87 Q 698.83 386.89 698.12 386.97 Q 696.99 387.09 695.51 386.91 A 0.73 0.62 -82.5 0 0 694.81 387.55 L 694.47 390.09 A 0.54 0.39 -82.6 0 0 694.79 390.68 L 698.76 391.23 A 0.89 0.66 -1.1 0 1 699.45 391.72 Q 699.71 392.54 699.24 393.29 A 1.04 0.53 5.3 0 1 698.45 393.60 L 694.18 393.81 A 0.79 0.63 -82.7 0 0 693.56 394.41 Q 693.29 395.56 693.25 396.75 Q 692.49 399.19 694.79 398.42 Q 694.99 398.36 695.73 398.37 L 698.20 398.41 A 0.94 0.51 -5.7 0 1 698.96 398.73 Q 699.53 399.80 698.59 400.63 A 1.43 1.15 19.2 0 1 697.69 400.95 L 689.73 401.00 A 0.61 0.58 5.8 0 1 689.13 400.30 L 692.42 384.80 A 0.69 0.66 -83.5 0 1 693.07 384.26 L 701.19 384.26 A 0.71 0.65 82.6 0 1 701.83 384.80 Z"/>
<path fill="rgb(255,255,255)" fill-opacity="1.000" d="M 715.43 386.80 Q 716.62 388.93 715.00 391.50 Q 712.44 395.55 707.05 395.34 A 0.61 0.59 -81.6 0 0 706.45 395.80 L 705.39 400.02 A 1.23 1.06 86.8 0 1 704.82 400.76 Q 703.71 401.33 702.52 400.89 A 0.61 0.60 -74.0 0 1 702.14 400.19 L 705.37 384.98 A 0.82 0.77 -1.6 0 1 705.98 384.38 Q 709.09 383.68 712.07 384.48 Q 714.50 385.13 715.43 386.80 Z M 711.06 387.19 Q 709.90 386.60 708.67 386.82 A 0.78 0.71 -1.5 0 0 708.05 387.42 L 707.43 391.85 A 0.68 0.65 -1.8 0 0 708.24 392.57 Q 713.07 391.64 711.68 387.52 Q 711.55 387.14 711.06 387.19 Z"/>
<path fill="rgb(255,255,255)" fill-opacity="1.000" d="M 722.65 385.00 L 720.90 394.19 Q 720.80 394.70 721.15 394.32 Q 728.85 385.75 729.19 385.19 Q 730.35 383.24 732.32 384.25 A 0.71 0.69 19.1 0 1 732.69 384.99 L 729.87 400.01 A 1.03 0.98 82.8 0 1 729.32 400.75 Q 728.20 401.29 727.03 400.88 A 0.63 0.57 -77.2 0 1 726.65 400.20 L 728.12 391.05 Q 728.20 390.54 727.85 390.94 Q 724.06 395.13 720.48 399.50 Q 719.68 400.47 718.86 400.75 Q 717.80 401.12 716.69 400.96 A 0.64 0.63 10.2 0 1 716.16 400.20 L 719.21 385.05 A 1.18 1.01 84.5 0 1 719.74 384.29 Q 721.02 383.57 722.32 384.24 A 0.74 0.64 -72.3 0 1 722.65 385.00 Z"/>
<path fill="rgb(255,255,255)" fill-opacity="1.000" d="M 748.51 386.86 Q 749.35 391.04 750.00 395.27 Q 750.17 396.38 750.71 395.39 Q 752.56 392.01 754.50 388.64 Q 756.39 385.36 756.74 385.09 Q 758.29 383.88 761.44 384.47 A 0.74 0.72 11.0 0 1 762.03 385.32 L 759.12 400.01 A 1.00 0.99 -6.6 0 1 758.55 400.72 Q 755.51 402.10 756.22 398.49 Q 757.09 394.01 757.73 389.60 Q 757.98 387.93 757.19 389.43 Q 754.93 393.74 752.45 397.91 Q 752.45 397.92 751.77 399.26 Q 750.66 401.48 748.04 400.83 A 0.79 0.75 -88.0 0 1 747.47 400.19 L 745.75 389.06 Q 745.64 388.34 745.27 388.80 Q 745.08 389.03 745.00 389.50 Q 744.18 394.41 743.00 399.25 Q 742.93 401.32 740.06 400.90 A 0.52 0.52 9.5 0 1 739.62 400.29 L 742.57 385.53 A 1.40 1.35 -4.4 0 1 743.49 384.50 Q 745.61 383.80 746.96 384.35 Q 748.09 384.81 748.51 386.86 Z"/>
<path fill="rgb(255,255,255)" fill-opacity="1.000" d="M 775.66 384.71 Q 776.41 387.18 773.50 386.75 Q 771.65 387.01 769.80 386.86 A 0.67 0.57 8.5 0 0 769.12 387.28 L 768.38 390.06 A 0.51 0.49 -79.2 0 0 768.80 390.70 L 772.70 391.10 A 0.74 0.52 -0.5 0 1 773.33 391.54 Q 773.81 393.73 770.07 393.39 Q 768.26 393.23 767.40 394.83 Q 765.22 398.84 770.03 398.38 Q 771.45 398.24 771.97 398.34 Q 773.94 398.70 772.50 400.56 A 1.04 0.99 18.0 0 1 771.69 400.95 L 763.72 401.00 A 0.67 0.66 5.6 0 1 763.06 400.21 L 765.95 385.23 A 1.22 1.17 1.5 0 1 766.99 384.28 Q 771.31 383.71 775.01 384.18 A 0.81 0.75 -3.7 0 1 775.66 384.71 Z"/>
<path fill="rgb(255,255,255)" fill-opacity="1.000" d="M 791.93 384.99 L 788.94 400.08 A 1.06 0.99 84.6 0 1 788.38 400.80 Q 787.35 401.28 786.27 400.89 A 0.65 0.59 16.1 0 1 785.85 400.20 L 786.88 394.87 A 0.89 0.75 -84.1 0 0 786.16 393.81 L 781.18 393.87 A 0.70 0.61 -83.3 0 0 780.58 394.42 L 779.35 400.01 A 1.12 0.94 85.8 0 1 778.82 400.75 Q 777.70 401.29 776.53 400.88 A 0.61 0.60 -75.1 0 1 776.14 400.19 L 779.11 385.05 A 0.94 0.89 -1.3 0 1 779.83 384.34 Q 783.08 383.65 782.21 386.24 Q 781.55 388.17 781.55 390.19 A 0.53 0.52 0.6 0 0 782.07 390.71 L 786.95 390.75 A 0.61 0.60 6.2 0 0 787.56 390.27 L 788.67 385.00 A 1.07 0.80 89.5 0 1 789.20 384.28 Q 790.39 383.79 791.55 384.27 A 0.65 0.65 17.4 0 1 791.93 384.99 Z"/>
<path fill="rgb(255,255,255)" fill-opacity="1.000" d="M 818.58 383.95 L 829.53 384.24 A 0.67 0.66 5.9 0 1 830.17 385.02 L 827.46 399.45 A 1.67 1.60 88.8 0 1 826.27 400.74 Q 823.57 401.43 823.87 399.83 Q 824.99 393.95 826.15 387.55 A 0.42 0.41 6.5 0 0 825.75 387.06 L 820.81 386.85 A 0.61 0.57 6.8 0 0 820.20 387.30 L 817.59 400.02 A 1.12 0.88 86.8 0 1 817.08 400.75 Q 815.85 401.37 814.42 400.81 A 0.62 0.61 -73.4 0 1 814.05 400.12 L 817.14 385.05 A 1.44 1.38 6.2 0 1 818.58 383.95 Z"/>
<path fill="rgb(255,255,255)" fill-opacity="1.000" d="M 834.0432 400.2985 A 9.42 7.45 125.4 0 1 833.4273 388.3044 A 9.42 7.45 125.4 0 1 844.9568 384.9415 A 9.42 7.45 125.4 0 1 845.5727 396.9356 A 9.42 7.45 125.4 0 1 834.0432 400.2985 Z M 837.0278 398.2256 A 6.15 4.12 113.6 0 0 843.2654 394.2394 A 6.15 4.12 113.6 0 0 841.9521 386.9544 A 6.15 4.12 113.6 0 0 835.7146 390.9406 A 6.15 4.12 113.6 0 0 837.0278 398.2256 Z"/>
<path fill="rgb(255,255,255)" fill-opacity="1.000" d="M 870.26 385.03 Q 868.82 388.63 866.10 391.81 A 0.82 0.81 53.2 0 0 865.98 392.67 Q 867.59 396.33 867.79 399.50 Q 867.90 401.30 865.08 400.86 A 1.21 1.21 3.7 0 1 864.06 399.70 Q 864.01 397.76 863.52 395.91 Q 863.19 394.66 862.28 394.10 Q 860.30 392.90 860.03 396.25 Q 859.97 397.05 859.78 397.82 Q 859.70 398.14 859.49 399.35 Q 859.10 401.64 856.54 400.85 A 0.63 0.58 -78.7 0 1 856.14 400.19 L 856.89 394.31 A 0.38 0.38 87.8 0 0 856.44 393.89 Q 853.01 394.55 852.06 398.06 Q 851.09 401.66 847.79 400.83 A 0.48 0.47 -73.0 0 1 847.47 400.21 Q 848.92 396.07 852.40 392.74 A 0.73 0.72 -34.6 0 0 852.56 391.92 Q 851.02 388.67 851.05 385.06 A 0.76 0.70 80.7 0 1 851.51 384.36 Q 852.72 383.88 853.83 384.48 A 1.06 0.88 -82.8 0 1 854.31 385.24 Q 854.54 387.09 854.96 388.89 Q 855.21 389.95 855.79 390.52 Q 857.27 391.95 858.00 389.50 Q 858.40 387.21 859.15 385.03 A 1.05 1.03 89.6 0 1 859.78 384.38 Q 863.03 383.23 862.07 386.77 Q 861.74 387.97 861.44 389.19 Q 860.59 392.55 862.94 390.69 Q 865.17 388.91 866.21 386.20 Q 867.30 383.36 869.97 384.36 A 0.52 0.51 -69.1 0 1 870.26 385.03 Z"/>
<path fill="rgb(255,255,255)" fill-opacity="1.000" d="M 882.09 384.99 Q 883.35 391.68 884.13 398.44 Q 884.28 399.70 883.77 400.45 Q 882.71 402.01 881.14 400.32 A 1.49 1.06 -73.8 0 1 880.83 399.43 Q 880.83 398.41 880.42 397.51 A 0.84 0.80 -11.1 0 0 879.68 397.04 L 875.19 397.00 A 0.38 0.37 -71.3 0 0 874.86 397.17 Q 871.83 401.38 869.51 400.96 A 0.50 0.49 19.6 0 1 869.16 400.24 Q 873.10 392.86 877.06 385.56 Q 878.54 382.85 881.56 384.28 A 0.99 0.91 -84.1 0 1 882.09 384.99 Z M 878.99 388.38 L 876.20 393.40 A 0.65 0.59 19.5 0 0 876.68 394.28 Q 880.49 395.07 880.02 392.85 Q 879.75 391.58 879.74 391.48 Q 879.61 390.27 879.35 388.47 Q 879.27 387.88 878.99 388.38 Z"/>
<path fill="rgb(255,255,255)" fill-opacity="1.000" d="M 902.66 384.99 Q 900.00 399.44 899.75 400.00 Q 899.13 401.37 896.76 400.83 A 0.54 0.53 12.3 0 1 896.35 400.21 L 898.68 388.21 A 0.75 0.74 -76.3 0 0 898.17 387.35 Q 895.25 386.48 894.86 388.07 Q 893.09 395.17 890.44 398.69 Q 888.77 400.90 885.98 401.25 A 1.05 1.05 -85.9 0 1 884.84 399.93 Q 885.27 398.35 886.97 397.62 A 1.63 1.24 -3.7 0 0 887.68 397.00 Q 890.91 391.21 892.68 384.80 A 0.77 0.76 -85.3 0 1 893.32 384.25 Q 897.79 383.68 902.25 384.41 A 0.51 0.50 10.3 0 1 902.66 384.99 Z"/>
<path fill="rgb(255,255,255)" fill-opacity="1.000" d="M 908.38 385.53 Q 909.53 388.70 910.25 392.01 Q 910.55 393.37 911.21 392.15 Q 912.99 388.84 914.97 385.61 Q 915.68 384.45 916.38 384.25 Q 917.28 383.98 918.53 384.45 A 0.47 0.47 -66.5 0 1 918.79 385.11 Q 915.21 391.78 910.99 398.12 Q 909.67 400.12 908.36 400.71 Q 906.53 401.54 904.42 400.96 A 0.89 0.83 2.3 0 1 903.79 400.33 Q 903.55 399.34 904.00 398.43 A 0.66 0.58 18.4 0 1 904.72 398.13 Q 907.00 398.69 907.70 397.07 Q 908.11 396.13 907.59 394.47 Q 906.17 389.90 905.11 385.23 A 0.86 0.75 65.6 0 1 905.36 384.41 Q 906.30 383.64 907.34 384.16 Q 908.01 384.51 908.38 385.53 Z"/>
<path fill="rgb(255,255,255)" fill-opacity="1.000" d="M 923.88 384.42 A 0.70 0.64 18.4 0 1 924.29 385.15 L 922.56 394.07 Q 922.36 395.08 923.03 394.33 L 930.93 385.44 Q 931.41 384.90 932.14 384.55 Q 934.06 383.61 934.53 384.55 Q 934.77 385.03 934.50 386.31 Q 932.08 397.83 932.00 398.75 Q 931.72 401.89 928.77 400.87 A 0.65 0.56 -76.2 0 1 928.42 400.19 L 929.88 391.31 Q 929.97 390.78 929.61 391.17 Q 925.75 395.42 922.05 399.81 Q 920.96 401.10 918.80 400.97 A 0.80 0.79 -82.7 0 1 918.07 400.02 Q 919.56 392.69 921.21 385.35 Q 921.64 383.41 923.88 384.42 Z"/>
<path fill="rgb(255,255,255)" fill-opacity="1.000" d="M 949.32 385.58 Q 950.03 386.76 948.70 387.53 A 0.98 0.80 41.3 0 1 947.82 387.50 Q 944.81 385.89 942.24 388.24 Q 940.24 390.06 939.92 392.77 Q 939.03 400.44 946.04 397.45 A 0.75 0.61 -28.7 0 1 946.86 397.60 Q 947.35 398.22 947.02 399.07 Q 946.79 399.65 946.11 400.09 Q 942.14 402.62 938.19 400.06 Q 936.31 398.85 936.00 396.65 Q 935.80 395.25 936.14 392.84 Q 936.91 387.35 942.00 384.75 Q 944.84 383.30 947.78 384.41 Q 948.86 384.82 949.32 385.58 Z"/>
<path fill="rgb(255,255,255)" fill-opacity="1.000" d="M 952.06 384.06 Q 954.38 383.44 962.82 384.38 A 0.61 0.58 2.3 0 1 963.36 384.94 Q 963.46 387.61 960.00 386.95 A 1.65 1.65 -79.0 0 0 958.08 388.25 Q 957.16 392.80 956.13 397.85 Q 956.13 397.86 955.95 399.17 Q 955.57 401.82 952.78 400.87 A 0.61 0.59 -76.3 0 1 952.39 400.20 Q 953.30 394.29 954.75 388.50 Q 955.10 386.54 952.50 387.11 A 1.76 1.76 -21.7 0 1 950.63 386.31 Q 949.65 384.72 952.06 384.06 Z"/>
<path fill="rgb(255,255,255)" fill-opacity="1.000" d="M 972.51 385.05 Q 973.49 391.76 974.58 398.45 Q 974.80 399.81 974.38 400.49 Q 973.64 401.70 971.87 400.80 A 1.13 0.87 -87.1 0 1 971.36 400.06 L 970.82 397.55 A 0.70 0.59 81.2 0 0 970.19 397.00 L 964.93 397.32 A 0.83 0.62 -80.3 0 0 964.31 397.91 Q 963.30 401.37 959.89 400.98 A 0.48 0.47 17.9 0 1 959.52 400.28 L 967.93 384.87 A 1.49 1.41 -85.5 0 1 968.64 384.23 Q 970.33 383.56 971.99 384.33 A 0.98 0.88 -83.7 0 1 972.51 385.05 Z M 968.87 388.84 L 966.50 393.34 A 0.64 0.60 -69.4 0 0 966.88 394.25 Q 971.27 395.24 970.41 392.45 Q 969.90 390.76 969.75 388.99 Q 969.62 387.41 968.87 388.84 Z"/>
<path fill="rgb(255,255,255)" fill-opacity="1.000" d="M 391.55 385.04 L 393.25 394.92 Q 393.45 396.06 394.04 395.10 Q 397.11 390.08 399.85 385.34 Q 400.62 384.02 402.16 384.11 Q 402.52 384.13 403.85 384.14 Q 404.52 384.15 405.09 384.47 A 0.77 0.68 -71.2 0 1 405.42 385.25 L 402.79 399.71 A 1.51 1.24 79.8 0 1 402.33 400.53 Q 401.21 401.45 399.76 400.89 A 0.64 0.57 -75.2 0 1 399.41 400.20 L 401.12 389.80 Q 401.21 389.28 400.90 389.72 Q 397.61 394.38 394.95 399.44 Q 394.29 400.70 393.46 400.97 Q 392.46 401.29 391.47 400.72 A 1.28 1.04 -85.0 0 1 390.95 399.95 Q 390.12 396.17 389.69 392.31 Q 388.49 386.51 388.04 391.94 Q 387.99 392.52 387.85 393.04 Q 386.40 398.17 386.50 399.00 Q 386.78 401.23 383.76 400.92 A 0.65 0.65 8.4 0 1 383.18 400.15 L 386.20 385.05 A 0.80 0.79 88.9 0 1 386.79 384.43 Q 388.87 383.92 390.96 384.43 A 0.79 0.76 1.9 0 1 391.55 385.04 Z"/>
<path fill="rgb(255,255,255)" fill-opacity="1.000" d="M 421.00 384.19 Q 423.84 384.20 426.51 384.30 A 0.41 0.40 6.1 0 1 426.90 384.77 L 423.93 400.08 A 1.04 1.01 83.2 0 1 423.37 400.81 Q 422.14 401.40 420.92 400.76 A 0.77 0.63 -74.1 0 1 420.60 400.02 L 421.22 395.50 A 0.90 0.85 -68.9 0 0 420.88 394.67 Q 419.93 393.96 419.00 394.75 Q 416.42 396.93 415.67 399.42 A 2.18 2.17 -82.5 0 1 413.66 400.97 Q 410.06 401.11 412.06 399.06 Q 413.52 396.11 415.62 393.57 A 0.51 0.49 39.6 0 0 415.54 392.88 Q 413.67 391.27 414.31 389.06 Q 415.74 384.16 421.00 384.19 Z M 418.94 391.31 Q 421.26 393.51 422.50 390.00 Q 423.90 386.03 420.57 386.89 Q 419.05 387.28 418.33 388.21 Q 417.21 389.67 418.94 391.31 Z"/>
<path fill="rgb(255,255,255)" fill-opacity="1.000" d="M 807.35 385.05 Q 806.28 391.35 804.74 397.55 Q 804.70 397.69 804.55 399.46 Q 804.37 401.40 801.68 400.95 A 0.97 0.88 -79.7 0 1 800.98 399.82 L 801.90 395.06 A 0.63 0.60 14.5 0 0 801.47 394.37 Q 800.36 394.01 799.44 394.69 Q 797.46 396.14 796.41 398.62 Q 795.66 400.38 794.85 400.79 Q 793.70 401.38 792.28 400.88 A 0.50 0.49 -69.1 0 1 792.00 400.22 Q 793.52 396.57 796.17 393.61 A 0.58 0.56 47.2 0 0 796.18 392.87 Q 793.78 389.92 795.49 387.26 Q 796.70 385.37 799.56 384.63 Q 803.16 383.69 806.95 384.46 A 0.51 0.50 -79.7 0 1 807.35 385.05 Z M 799.54 391.44 Q 803.93 393.09 803.21 387.26 A 0.59 0.58 84.7 0 0 802.60 386.75 Q 799.57 386.94 798.56 388.57 Q 797.30 390.61 799.54 391.44 Z"/>
<path fill="rgb(18,102,149)" fill-opacity="1.000" d="M 422.50 390.00 Q 421.26 393.51 418.94 391.31 Q 417.21 389.67 418.33 388.21 Q 419.05 387.28 420.57 386.89 Q 423.90 386.03 422.50 390.00 Z"/>
<ellipse fill="rgb(4,100,166)" fill-opacity="1.000" cx="0" cy="0" rx="6.16" ry="4.06" transform="translate(462.74,392.59) rotate(112.7)"/>
<path fill="rgb(4,100,166)" fill-opacity="1.000" d="M 483.91 387.57 Q 483.56 392.69 481.97 397.58 A 0.80 0.63 -78.8 0 1 481.31 398.14 L 476.25 398.09 A 0.36 0.33 -74.6 0 1 475.98 397.57 Q 478.31 393.16 479.98 388.45 Q 480.89 385.89 483.48 386.87 A 0.72 0.66 -78.9 0 1 483.91 387.57 Z"/>
<path fill="rgb(18,102,149)" fill-opacity="1.000" d="M 711.06 387.19 Q 711.55 387.14 711.68 387.52 Q 713.07 391.64 708.24 392.57 A 0.68 0.65 -1.8 0 1 707.43 391.85 L 708.05 387.42 A 0.78 0.71 -1.5 0 1 708.67 386.82 Q 709.90 386.60 711.06 387.19 Z"/>
<path fill="rgb(18,102,149)" fill-opacity="1.000" d="M 802.60 386.75 A 0.59 0.58 84.7 0 1 803.21 387.26 Q 803.93 393.09 799.54 391.44 Q 797.30 390.61 798.56 388.57 Q 799.57 386.94 802.60 386.75 Z"/>
<ellipse fill="rgb(4,100,166)" fill-opacity="1.000" cx="0" cy="0" rx="6.18" ry="4.08" transform="translate(537.04,392.58) rotate(113.9)"/>
<ellipse fill="rgb(4,100,166)" fill-opacity="1.000" cx="0" cy="0" rx="6.15" ry="4.12" transform="translate(839.49,392.59) rotate(113.6)"/>
<path fill="rgb(18,102,149)" fill-opacity="1.000" d="M 349.47 388.88 L 350.06 393.31 A 0.79 0.74 78.8 0 1 349.53 394.16 Q 347.43 394.72 346.42 394.27 A 0.53 0.53 26.1 0 1 346.17 393.54 L 348.77 388.69 Q 349.31 387.69 349.47 388.88 Z"/>
<path fill="rgb(18,102,149)" fill-opacity="1.000" d="M 498.29 388.64 L 499.00 393.95 A 0.55 0.49 -3.2 0 1 498.45 394.50 L 495.40 394.50 A 0.48 0.47 14.2 0 1 494.98 393.80 L 497.76 388.59 Q 498.18 387.80 498.29 388.64 Z"/>
<path fill="rgb(18,102,149)" fill-opacity="1.000" d="M 666.94 389.07 L 667.41 393.76 A 0.61 0.53 80.8 0 1 667.02 394.39 Q 665.52 394.77 664.05 394.35 A 0.45 0.44 21.4 0 1 663.77 393.73 L 666.22 388.88 Q 666.81 387.72 666.94 389.07 Z"/>
<path fill="rgb(18,102,149)" fill-opacity="1.000" d="M 879.35 388.47 Q 879.61 390.27 879.74 391.48 Q 879.75 391.58 880.02 392.85 Q 880.49 395.07 876.68 394.28 A 0.65 0.59 19.5 0 1 876.20 393.40 L 878.99 388.38 Q 879.27 387.88 879.35 388.47 Z"/>
<path fill="rgb(18,102,149)" fill-opacity="1.000" d="M 969.75 388.99 Q 969.90 390.76 970.41 392.45 Q 971.27 395.24 966.88 394.25 A 0.64 0.60 -69.4 0 1 966.50 393.34 L 968.87 388.84 Q 969.62 387.41 969.75 388.99 Z"/>
<path fill="rgb(4,100,166)" fill-opacity="1.000" d="M 683.28 394.55 Q 684.03 398.98 679.18 398.38 A 0.72 0.71 87.1 0 1 678.57 397.82 Q 677.40 392.29 682.71 393.91 A 0.83 0.80 4.3 0 1 683.28 394.55 Z"/>
</svg>